<svg width="174" height="41" viewBox="0 0 174 41" fill="none" xmlns="http://www.w3.org/2000/svg">
<g id="Milleneige" filter="url(#filter0_d)">
<path d="M9.42188 6.73438L8.3125 15.4688C8.21875 16.1458 8.14062 17.0521 8.07812 18.1875C8.02604 19.3229 8 20.5938 8 22V22.2812C8 22.5521 7.97396 22.7448 7.92188 22.8594C7.88021 22.9635 7.78125 23.0625 7.625 23.1562L5.98438 24.0469C5.98438 24.0469 5.96354 24.0573 5.92188 24.0781C5.86979 24.099 5.8125 24.1094 5.75 24.1094C5.60417 24.1094 5.51562 24.0833 5.48438 24.0312C5.45312 23.9896 5.4375 23.8906 5.4375 23.7344C5.4375 23.5677 5.46875 23.2344 5.53125 22.7344C5.59375 22.2344 5.67708 21.651 5.78125 20.9844L8.60938 3.90625C8.58854 3.80208 8.5625 3.66146 8.53125 3.48438C8.48958 3.20312 8.46875 3.02083 8.46875 2.9375C8.46875 2.875 8.5 2.8125 8.5625 2.75C8.625 2.67708 8.69271 2.625 8.76562 2.59375L10.5312 1.95312C10.5729 1.93229 10.6198 1.91667 10.6719 1.90625C10.724 1.89583 10.7917 1.89062 10.875 1.89062C10.9896 1.89062 11.0729 1.92188 11.125 1.98438C11.1771 2.04688 11.2083 2.13542 11.2188 2.25C11.2188 2.27083 11.2135 2.3125 11.2031 2.375C11.1302 2.78125 11.0938 3.23438 11.0938 3.73438C11.0938 5.20312 11.2865 7.30208 11.6719 10.0312C12.0677 12.75 12.6146 15.5573 13.3125 18.4531C14.6458 14.9948 15.6979 12.1667 16.4688 9.96875C17.2396 7.76042 17.875 5.78646 18.375 4.04688C18.4167 3.23438 18.6354 2.74479 19.0312 2.57812C19.0833 2.55729 19.125 2.54167 19.1562 2.53125L21.125 1.70312H21.25C21.3125 1.70312 21.3594 1.72396 21.3906 1.76562C21.4323 1.79688 21.4531 1.84896 21.4531 1.92188L21.4219 2.25C21.401 2.38542 21.3333 2.52604 21.2188 2.67188C21.1042 2.80729 20.9531 2.94792 20.7656 3.09375C20.5573 5.26042 20.4062 7.44271 20.3125 9.64062C20.2188 11.8385 20.1719 14.0573 20.1719 16.2969C20.1719 18.7656 20.3073 20.8542 20.5781 22.5625C20.6198 22.7292 20.6406 22.8281 20.6406 22.8594C20.6406 23.0469 20.5833 23.1875 20.4688 23.2812C20.3646 23.375 20.1719 23.4531 19.8906 23.5156L18.9062 23.7031H18.5781C18.2656 23.7031 18.0573 23.4427 17.9531 22.9219C17.849 22.3906 17.7969 21.2604 17.7969 19.5312C17.7969 18.2396 17.8438 16.6771 17.9375 14.8438C18.0417 13.0104 18.1875 10.8646 18.375 8.40625C17.5938 10.8021 16.8229 13.0312 16.0625 15.0938C15.3021 17.1458 14.6562 18.7708 14.125 19.9688L13.75 20.7969C13.6354 21.026 13.4688 21.2083 13.25 21.3438C13.0417 21.4688 12.8177 21.5312 12.5781 21.5312C12.1198 21.5312 11.599 20.1927 11.0156 17.5156C10.4427 14.8385 9.91146 11.2448 9.42188 6.73438ZM27.4219 17.8594C26.4115 18.6823 25.401 19.4688 24.3906 20.2188C23.3906 20.9688 22.3906 21.6823 21.3906 22.3594L20.625 21.1719C21.6042 20.5052 22.651 19.7552 23.7656 18.9219C24.8906 18.0781 26.1146 17.1198 27.4375 16.0469C27.4792 15.8594 27.5365 15.5885 27.6094 15.2344C28.4635 11.1302 29.8333 9.07812 31.7188 9.07812C31.9062 9.07812 32.0312 9.11458 32.0938 9.1875C32.1562 9.26042 32.1875 9.44271 32.1875 9.73438C32.1875 10.5573 31.974 11.401 31.5469 12.2656C31.1302 13.1302 30.4948 14.026 29.6406 14.9531C29.5885 15.5156 29.5469 16.0625 29.5156 16.5938C29.4844 17.1146 29.4688 17.6198 29.4688 18.1094C29.4688 19.8594 29.6927 21.0833 30.1406 21.7812C30.5885 22.4792 31.349 22.8281 32.4219 22.8281C33.1094 22.8281 33.8438 22.6875 34.625 22.4062C35.4062 22.125 36.2708 21.6927 37.2188 21.1094L37.9219 22.3281C36.9427 23.0573 35.9062 23.6198 34.8125 24.0156C33.7292 24.4115 32.6979 24.6094 31.7188 24.6094C30.2188 24.6094 29.125 24.125 28.4375 23.1562C27.7604 22.1875 27.4219 20.6406 27.4219 18.5156V17.8594ZM31.1562 5.09375L30.5312 4.48438C30.8646 3.88021 31.2448 3.29688 31.6719 2.73438C32.099 2.16146 32.5781 1.60938 33.1094 1.07812C33.6198 1.22396 34.0312 1.42708 34.3438 1.6875C34.6667 1.94792 34.9323 2.29167 35.1406 2.71875C34.6823 3.20833 34.1302 3.64583 33.4844 4.03125C32.849 4.41667 32.0729 4.77083 31.1562 5.09375ZM44.7344 13.5156C46.224 11.7135 47.4323 9.92708 48.3594 8.15625C49.2969 6.38542 49.7656 5.09375 49.7656 4.28125C49.7656 3.9375 49.5781 3.625 49.2031 3.34375C48.8281 3.0625 48.4375 2.92188 48.0312 2.92188C47.8125 2.92188 47.599 3.05208 47.3906 3.3125C47.1927 3.57292 46.9323 4.09375 46.6094 4.875C45.9844 6.41667 45.5156 7.89583 45.2031 9.3125C44.901 10.7292 44.7448 12.1302 44.7344 13.5156ZM42.6406 18.2344C41.9323 18.9635 41.1667 19.6719 40.3438 20.3594C39.5312 21.0469 38.651 21.7135 37.7031 22.3594L36.9375 21.1719C37.6146 20.7552 38.4062 20.1406 39.3125 19.3281C40.2188 18.5156 41.2917 17.4479 42.5312 16.125C42.6562 11.8125 43.2031 8.20833 44.1719 5.3125C45.151 2.41667 46.2396 0.96875 47.4375 0.96875C47.875 0.96875 48.4062 1.09375 49.0312 1.34375C49.6562 1.59375 50.3385 1.95833 51.0781 2.4375C51.5677 2.72917 51.9167 3 52.125 3.25C52.3333 3.5 52.4375 3.77604 52.4375 4.07812C52.4375 4.97396 51.7292 6.51562 50.3125 8.70312C48.8958 10.8906 47.0469 13.2344 44.7656 15.7344C44.7969 18.4531 45.0833 20.2396 45.625 21.0938C46.1667 21.9375 47.1823 22.3594 48.6719 22.3594C49.4844 22.3594 50.3021 22.2552 51.125 22.0469C51.9583 21.8385 52.7812 21.526 53.5938 21.1094L54.2656 22.3281C53.0781 23.0365 51.8906 23.5677 50.7031 23.9219C49.5156 24.2656 48.3385 24.4375 47.1719 24.4375C45.6198 24.4375 44.5 23.974 43.8125 23.0469C43.1354 22.1198 42.7448 20.5156 42.6406 18.2344ZM61.0469 13.5156C62.5365 11.7135 63.7448 9.92708 64.6719 8.15625C65.6094 6.38542 66.0781 5.09375 66.0781 4.28125C66.0781 3.9375 65.8906 3.625 65.5156 3.34375C65.1406 3.0625 64.75 2.92188 64.3438 2.92188C64.125 2.92188 63.9115 3.05208 63.7031 3.3125C63.5052 3.57292 63.2448 4.09375 62.9219 4.875C62.2969 6.41667 61.8281 7.89583 61.5156 9.3125C61.2135 10.7292 61.0573 12.1302 61.0469 13.5156ZM58.9531 18.2344C58.2448 18.9635 57.4792 19.6719 56.6562 20.3594C55.8438 21.0469 54.9635 21.7135 54.0156 22.3594L53.25 21.1719C53.9271 20.7552 54.7188 20.1406 55.625 19.3281C56.5312 18.5156 57.6042 17.4479 58.8438 16.125C58.9688 11.8125 59.5156 8.20833 60.4844 5.3125C61.4635 2.41667 62.5521 0.96875 63.75 0.96875C64.1875 0.96875 64.7188 1.09375 65.3438 1.34375C65.9688 1.59375 66.651 1.95833 67.3906 2.4375C67.8802 2.72917 68.2292 3 68.4375 3.25C68.6458 3.5 68.75 3.77604 68.75 4.07812C68.75 4.97396 68.0417 6.51562 66.625 8.70312C65.2083 10.8906 63.3594 13.2344 61.0781 15.7344C61.1094 18.4531 61.3958 20.2396 61.9375 21.0938C62.4792 21.9375 63.4948 22.3594 64.9844 22.3594C65.7969 22.3594 66.6146 22.2552 67.4375 22.0469C68.2708 21.8385 69.0938 21.526 69.9062 21.1094L70.5781 22.3281C69.3906 23.0365 68.2031 23.5677 67.0156 23.9219C65.8281 24.2656 64.651 24.4375 63.4844 24.4375C61.9323 24.4375 60.8125 23.974 60.125 23.0469C59.4479 22.1198 59.0573 20.5156 58.9531 18.2344ZM74.1875 18.5312C76 17.5521 77.3958 16.4479 78.375 15.2188C79.3646 13.9792 79.8594 12.7188 79.8594 11.4375C79.8594 10.7917 79.7292 10.3021 79.4688 9.96875C79.2188 9.625 78.849 9.45312 78.3594 9.45312C77.4115 9.45312 76.4427 10.2083 75.4531 11.7188C74.474 13.2188 73.9844 14.8594 73.9844 16.6406C73.9844 16.9219 74 17.224 74.0312 17.5469C74.0729 17.8594 74.125 18.1875 74.1875 18.5312ZM74.6406 20.2188C75.0052 21.0729 75.5573 21.7083 76.2969 22.125C77.0469 22.5312 78.0312 22.7344 79.25 22.7344C80.375 22.7344 81.5104 22.5885 82.6562 22.2969C83.8125 22.0052 84.9844 21.5677 86.1719 20.9844L86.8438 22.2031C85.5521 23.0677 84.1771 23.7292 82.7188 24.1875C81.2604 24.6562 79.8177 24.8906 78.3906 24.8906C76.1823 24.8906 74.474 24.2969 73.2656 23.1094C72.0677 21.9115 71.4688 20.2188 71.4688 18.0312C71.4688 15.3125 72.2292 12.9167 73.75 10.8438C75.2708 8.76042 77 7.71875 78.9375 7.71875C80 7.71875 80.875 8.03646 81.5625 8.67188C82.25 9.30729 82.5938 10.1094 82.5938 11.0781C82.5938 12.5052 81.9271 13.9896 80.5938 15.5312C79.2708 17.0625 77.2865 18.625 74.6406 20.2188ZM90.0625 8.875H91.2656C91.5156 8.875 91.6823 8.94792 91.7656 9.09375C91.849 9.22917 91.8906 9.48958 91.8906 9.875C91.8906 10.6042 91.8021 11.7188 91.625 13.2188C91.4583 14.7083 91.224 16.3542 90.9219 18.1562C92.5365 14.6458 93.8906 12.2344 94.9844 10.9219C96.0885 9.59896 97.2292 8.9375 98.4062 8.9375C99.0625 8.9375 99.5625 9.14062 99.9062 9.54688C100.26 9.94271 100.438 10.5052 100.438 11.2344C100.438 11.8073 100.156 13.224 99.5938 15.4844C99.0312 17.7344 98.75 19.5938 98.75 21.0625C98.75 21.5729 98.7865 21.9635 98.8594 22.2344C98.9427 22.4948 99.0573 22.625 99.2031 22.625C99.401 22.625 99.7708 22.4844 100.312 22.2031C100.865 21.9219 101.536 21.5312 102.328 21.0312L103.094 22.2656C102.125 22.9844 101.193 23.5625 100.297 24C99.401 24.4271 98.6875 24.6406 98.1562 24.6406C97.5625 24.6406 97.125 24.4323 96.8438 24.0156C96.5625 23.599 96.4219 22.9427 96.4219 22.0469C96.4219 20.776 96.651 18.9844 97.1094 16.6719C97.5781 14.3594 97.8125 12.7812 97.8125 11.9375C97.8125 11.6875 97.776 11.5 97.7031 11.375C97.6302 11.25 97.5156 11.1875 97.3594 11.1875C96.8073 11.1875 96.0104 11.9792 94.9688 13.5625C93.9375 15.1458 92.8333 17.2604 91.6562 19.9062C91.4688 20.3229 91.2344 20.875 90.9531 21.5625C90.151 23.5104 89.3385 24.4844 88.5156 24.4844C88.3281 24.4844 88.1615 24.401 88.0156 24.2344C87.8802 24.0677 87.8125 23.875 87.8125 23.6562C87.8125 23.6146 87.9062 23.0729 88.0938 22.0312C88.2917 20.9792 88.4635 19.9219 88.6094 18.8594C88.8594 17.1823 89.0521 15.5885 89.1875 14.0781C89.3333 12.5573 89.4062 11.4115 89.4062 10.6406C89.4062 10.5781 89.401 10.4427 89.3906 10.2344C89.3802 10.026 89.375 9.84896 89.375 9.70312C89.375 9.44271 89.4375 9.23958 89.5625 9.09375C89.6875 8.94792 89.8542 8.875 90.0625 8.875ZM106.75 18.5312C108.562 17.5521 109.958 16.4479 110.938 15.2188C111.927 13.9792 112.422 12.7188 112.422 11.4375C112.422 10.7917 112.292 10.3021 112.031 9.96875C111.781 9.625 111.411 9.45312 110.922 9.45312C109.974 9.45312 109.005 10.2083 108.016 11.7188C107.036 13.2188 106.547 14.8594 106.547 16.6406C106.547 16.9219 106.562 17.224 106.594 17.5469C106.635 17.8594 106.688 18.1875 106.75 18.5312ZM107.203 20.2188C107.568 21.0729 108.12 21.7083 108.859 22.125C109.609 22.5312 110.594 22.7344 111.812 22.7344C112.938 22.7344 114.073 22.5885 115.219 22.2969C116.375 22.0052 117.547 21.5677 118.734 20.9844L119.406 22.2031C118.115 23.0677 116.74 23.7292 115.281 24.1875C113.823 24.6562 112.38 24.8906 110.953 24.8906C108.745 24.8906 107.036 24.2969 105.828 23.1094C104.63 21.9115 104.031 20.2188 104.031 18.0312C104.031 15.3125 104.792 12.9167 106.312 10.8438C107.833 8.76042 109.562 7.71875 111.5 7.71875C112.562 7.71875 113.438 8.03646 114.125 8.67188C114.812 9.30729 115.156 10.1094 115.156 11.0781C115.156 12.5052 114.49 13.9896 113.156 15.5312C111.833 17.0625 109.849 18.625 107.203 20.2188ZM125.172 17.8594C124.161 18.6823 123.151 19.4688 122.141 20.2188C121.141 20.9688 120.141 21.6823 119.141 22.3594L118.375 21.1719C119.354 20.5052 120.401 19.7552 121.516 18.9219C122.641 18.0781 123.865 17.1198 125.188 16.0469C125.229 15.8594 125.286 15.5885 125.359 15.2344C126.214 11.1302 127.583 9.07812 129.469 9.07812C129.656 9.07812 129.781 9.11458 129.844 9.1875C129.906 9.26042 129.938 9.44271 129.938 9.73438C129.938 10.5573 129.724 11.401 129.297 12.2656C128.88 13.1302 128.245 14.026 127.391 14.9531C127.339 15.5156 127.297 16.0625 127.266 16.5938C127.234 17.1146 127.219 17.6198 127.219 18.1094C127.219 19.8594 127.443 21.0833 127.891 21.7812C128.339 22.4792 129.099 22.8281 130.172 22.8281C130.859 22.8281 131.594 22.6875 132.375 22.4062C133.156 22.125 134.021 21.6927 134.969 21.1094L135.672 22.3281C134.693 23.0573 133.656 23.6198 132.562 24.0156C131.479 24.4115 130.448 24.6094 129.469 24.6094C127.969 24.6094 126.875 24.125 126.188 23.1562C125.51 22.1875 125.172 20.6406 125.172 18.5156V17.8594ZM128.906 5.09375L128.281 4.48438C128.615 3.88021 128.995 3.29688 129.422 2.73438C129.849 2.16146 130.328 1.60938 130.859 1.07812C131.37 1.22396 131.781 1.42708 132.094 1.6875C132.417 1.94792 132.682 2.29167 132.891 2.71875C132.432 3.20833 131.88 3.64583 131.234 4.03125C130.599 4.41667 129.823 4.77083 128.906 5.09375ZM137.25 25.25L138.562 25.4688C138.542 25.625 138.484 25.9688 138.391 26.5C138.297 27.0417 138.214 27.474 138.141 27.7969C138.964 27.9948 139.745 28.1458 140.484 28.25C141.234 28.3542 141.958 28.4062 142.656 28.4062C144.083 28.4062 145.057 28.1198 145.578 27.5469C146.099 26.9844 146.38 25.5469 146.422 23.2344L146.484 19.9375C145.495 21.0521 144.557 21.8646 143.672 22.375C142.797 22.875 141.891 23.125 140.953 23.125C139.807 23.125 138.922 22.7604 138.297 22.0312C137.672 21.3021 137.359 20.2552 137.359 18.8906C137.359 17.6094 137.599 16.2812 138.078 14.9062C138.557 13.5208 139.198 12.3021 140 11.25C140.792 10.1979 141.672 9.41146 142.641 8.89062C143.609 8.35938 144.651 8.09375 145.766 8.09375C146.953 8.09375 147.969 8.24479 148.812 8.54688C149.667 8.83854 150.094 9.16146 150.094 9.51562C150.094 9.60938 150.068 9.70833 150.016 9.8125C149.974 9.90625 149.906 9.99479 149.812 10.0781L148.922 10.8438C148.724 11 148.578 11.1042 148.484 11.1562C148.401 11.2083 148.323 11.2396 148.25 11.25C148 11.25 147.521 11.0677 146.812 10.7031C146.104 10.3281 145.458 10.1406 144.875 10.1406C144.094 10.1406 143.427 10.3229 142.875 10.6875C142.333 11.0521 141.818 11.651 141.328 12.4844C140.828 13.3385 140.448 14.224 140.188 15.1406C139.927 16.0573 139.797 16.9948 139.797 17.9531C139.797 18.9948 140.01 19.7865 140.438 20.3281C140.865 20.8698 141.479 21.1406 142.281 21.1406C143.656 21.1406 144.729 20.4115 145.5 18.9531C146.281 17.4844 146.776 15.2552 146.984 12.2656L150 12.0938C149.5 13.1146 149.141 14.2812 148.922 15.5938C148.714 16.9062 148.609 18.7865 148.609 21.2344C148.609 21.5365 148.615 21.9844 148.625 22.5781C148.635 23.1719 148.641 23.6094 148.641 23.8906C148.641 26.2344 148.042 27.9115 146.844 28.9219C145.646 29.9427 143.672 30.4531 140.922 30.4531C139.474 30.4531 138.307 30.3125 137.422 30.0312C136.536 29.7604 136.094 29.4115 136.094 28.9844C136.094 28.6927 136.167 28.2969 136.312 27.7969C136.469 27.2969 136.781 26.4479 137.25 25.25ZM155.625 18.5312C157.438 17.5521 158.833 16.4479 159.812 15.2188C160.802 13.9792 161.297 12.7188 161.297 11.4375C161.297 10.7917 161.167 10.3021 160.906 9.96875C160.656 9.625 160.286 9.45312 159.797 9.45312C158.849 9.45312 157.88 10.2083 156.891 11.7188C155.911 13.2188 155.422 14.8594 155.422 16.6406C155.422 16.9219 155.438 17.224 155.469 17.5469C155.51 17.8594 155.562 18.1875 155.625 18.5312ZM156.078 20.2188C156.443 21.0729 156.995 21.7083 157.734 22.125C158.484 22.5312 159.469 22.7344 160.688 22.7344C161.812 22.7344 162.948 22.5885 164.094 22.2969C165.25 22.0052 166.422 21.5677 167.609 20.9844L168.281 22.2031C166.99 23.0677 165.615 23.7292 164.156 24.1875C162.698 24.6562 161.255 24.8906 159.828 24.8906C157.62 24.8906 155.911 24.2969 154.703 23.1094C153.505 21.9115 152.906 20.2188 152.906 18.0312C152.906 15.3125 153.667 12.9167 155.188 10.8438C156.708 8.76042 158.438 7.71875 160.375 7.71875C161.438 7.71875 162.312 8.03646 163 8.67188C163.688 9.30729 164.031 10.1094 164.031 11.0781C164.031 12.5052 163.365 13.9896 162.031 15.5312C160.708 17.0625 158.724 18.625 156.078 20.2188Z" fill="#584538"/>
</g>
<defs>
<filter id="filter0_d" x="0.4375" y="0.96875" width="172.844" height="39.4844" filterUnits="userSpaceOnUse" color-interpolation-filters="sRGB">
<feFlood flood-opacity="0" result="BackgroundImageFix"/>
<feColorMatrix in="SourceAlpha" type="matrix" values="0 0 0 0 0 0 0 0 0 0 0 0 0 0 0 0 0 0 127 0"/>
<feOffset dy="5"/>
<feGaussianBlur stdDeviation="2.5"/>
<feColorMatrix type="matrix" values="0 0 0 0 0.345098 0 0 0 0 0.270588 0 0 0 0 0.219608 0 0 0 0.35 0"/>
<feBlend mode="normal" in2="BackgroundImageFix" result="effect1_dropShadow"/>
<feBlend mode="normal" in="SourceGraphic" in2="effect1_dropShadow" result="shape"/>
</filter>
</defs>
</svg>
